<svg width="18" height="20" viewBox="0 0 18 20" fill="none" xmlns="http://www.w3.org/2000/svg">
<path d="M16.9602 6.95999C16.2902 6.21999 15.2802 5.78999 13.8802 5.63999V4.87999C13.8802 3.50999 13.3002 2.18999 12.2802 1.26999C11.2502 0.329992 9.91023 -0.110008 8.52023 0.0199919C6.13023 0.249992 4.12023 2.55999 4.12023 5.05999V5.63999C2.72023 5.78999 1.71023 6.21999 1.04023 6.95999C0.070234 8.03999 0.100234 9.47999 0.210234 10.48L0.910234 16.05C1.12023 18 1.91023 20 6.21023 20H11.7902C16.0902 20 16.8802 18 17.0902 16.06L17.7902 10.47C17.9002 9.47999 17.9202 8.03999 16.9602 6.95999ZM8.66023 1.40999C9.66023 1.31999 10.6102 1.62999 11.3502 2.29999C12.0802 2.95999 12.4902 3.89999 12.4902 4.87999V5.57999H5.51023V5.05999C5.51023 3.27999 6.98023 1.56999 8.66023 1.40999ZM5.42023 11.15H5.41023C4.86023 11.15 4.41023 10.7 4.41023 10.15C4.41023 9.59999 4.86023 9.14999 5.41023 9.14999C5.97023 9.14999 6.42023 9.59999 6.42023 10.15C6.42023 10.7 5.97023 11.15 5.42023 11.15ZM12.4202 11.15H12.4102C11.8602 11.15 11.4102 10.7 11.4102 10.15C11.4102 9.59999 11.8602 9.14999 12.4102 9.14999C12.9702 9.14999 13.4202 9.59999 13.4202 10.15C13.4202 10.7 12.9702 11.15 12.4202 11.15Z" fill="#4E5053"/>
</svg>
